<mxfile host="65bd71144e">
    <diagram id="4dQN4Qq6oThsi6_X4uAq" name="PÃ¡gina-1">
        <mxGraphModel dx="1812" dy="732" grid="1" gridSize="10" guides="1" tooltips="1" connect="1" arrows="1" fold="1" page="1" pageScale="1" pageWidth="827" pageHeight="1169" background="none" math="0" shadow="0">
            <root>
                <mxCell id="0"/>
                <mxCell id="1" parent="0"/>
                <mxCell id="2" value="&lt;h1&gt;Surtur&lt;/h1&gt;&lt;p&gt;Microservice for sending automatic charges&lt;/p&gt;" style="text;html=1;strokeColor=none;fillColor=none;spacing=5;spacingTop=-20;whiteSpace=wrap;overflow=hidden;rounded=0;fontColor=#FFFFFF;" vertex="1" parent="1">
                    <mxGeometry x="-90" y="20" width="320" height="70" as="geometry"/>
                </mxCell>
                <mxCell id="6" style="edgeStyle=none;html=1;entryX=0;entryY=0.5;entryDx=0;entryDy=0;fontColor=#000000;" edge="1" parent="1" source="3" target="5">
                    <mxGeometry relative="1" as="geometry">
                        <Array as="points">
                            <mxPoint x="190" y="180"/>
                        </Array>
                    </mxGeometry>
                </mxCell>
                <mxCell id="3" value="Rocketzapi" style="ellipse;whiteSpace=wrap;html=1;aspect=fixed;fillColor=#FFFFFF;fontColor=#000000;" vertex="1" parent="1">
                    <mxGeometry x="30" y="110" width="120" height="120" as="geometry"/>
                </mxCell>
                <mxCell id="14" style="edgeStyle=none;html=1;entryX=1;entryY=0.5;entryDx=0;entryDy=0;fontColor=#FFFFFF;" edge="1" parent="1" source="4" target="13">
                    <mxGeometry relative="1" as="geometry">
                        <Array as="points">
                            <mxPoint x="520" y="370"/>
                        </Array>
                    </mxGeometry>
                </mxCell>
                <mxCell id="4" value="Surtur" style="whiteSpace=wrap;html=1;aspect=fixed;fontColor=#000000;fillColor=#FFFFFF;" vertex="1" parent="1">
                    <mxGeometry x="470" y="180" width="110" height="110" as="geometry"/>
                </mxCell>
                <mxCell id="8" style="edgeStyle=none;html=1;fontColor=#000000;" edge="1" parent="1" source="5" target="7">
                    <mxGeometry relative="1" as="geometry"/>
                </mxCell>
                <mxCell id="9" style="edgeStyle=none;html=1;entryX=0.091;entryY=0.864;entryDx=0;entryDy=0;entryPerimeter=0;fontColor=#000000;" edge="1" parent="1" source="5" target="4">
                    <mxGeometry relative="1" as="geometry">
                        <Array as="points">
                            <mxPoint x="430" y="210"/>
                        </Array>
                    </mxGeometry>
                </mxCell>
                <mxCell id="5" value="Register user a ccount" style="rounded=1;whiteSpace=wrap;html=1;fontColor=#000000;fillColor=#FFFFFF;" vertex="1" parent="1">
                    <mxGeometry x="210" y="180" width="120" height="60" as="geometry"/>
                </mxCell>
                <mxCell id="7" value="Application process (rocketzapi)" style="shape=cylinder3;whiteSpace=wrap;html=1;boundedLbl=1;backgroundOutline=1;size=15;fontColor=#000000;fillColor=#FFFFFF;" vertex="1" parent="1">
                    <mxGeometry x="120" y="330" width="80" height="110" as="geometry"/>
                </mxCell>
                <mxCell id="11" value="Dados Usuario" style="text;html=1;strokeColor=none;fillColor=none;align=center;verticalAlign=middle;whiteSpace=wrap;rounded=0;fontColor=#FFFFFF;" vertex="1" parent="1">
                    <mxGeometry x="350" y="180" width="80" height="30" as="geometry"/>
                </mxCell>
                <mxCell id="18" style="edgeStyle=none;html=1;fontColor=#000000;" edge="1" parent="1" source="13" target="17">
                    <mxGeometry relative="1" as="geometry">
                        <Array as="points">
                            <mxPoint x="560" y="395"/>
                        </Array>
                    </mxGeometry>
                </mxCell>
                <mxCell id="13" value="Accounts (Users)&lt;br&gt;&lt;br&gt;Name&lt;br&gt;Email&lt;br&gt;Company" style="rounded=1;whiteSpace=wrap;html=1;fillColor=#FFFFFF;fontColor=#000000;align=center;horizontal=1;verticalAlign=top;" vertex="1" parent="1">
                    <mxGeometry x="280" y="340" width="190" height="110" as="geometry"/>
                </mxCell>
                <mxCell id="23" style="edgeStyle=none;html=1;fontColor=#000000;" edge="1" parent="1" source="17" target="22">
                    <mxGeometry relative="1" as="geometry">
                        <Array as="points">
                            <mxPoint x="700" y="280"/>
                        </Array>
                    </mxGeometry>
                </mxCell>
                <mxCell id="35" style="edgeStyle=none;html=1;entryX=0.5;entryY=1;entryDx=0;entryDy=0;fontColor=#000000;exitX=0;exitY=0.806;exitDx=0;exitDy=0;exitPerimeter=0;" edge="1" parent="1" source="17" target="13">
                    <mxGeometry relative="1" as="geometry">
                        <Array as="points">
                            <mxPoint x="375" y="490"/>
                        </Array>
                    </mxGeometry>
                </mxCell>
                <mxCell id="17" value="Charges Confi Queues&lt;br&gt;&lt;br&gt;&lt;br&gt;AccountId&lt;br&gt;Value&lt;br&gt;Date Expiration&lt;br&gt;Date Send Charge&lt;br&gt;" style="rounded=1;whiteSpace=wrap;html=1;fontColor=#000000;fillColor=#FFFFFF;align=center;verticalAlign=top;" vertex="1" parent="1">
                    <mxGeometry x="600" y="365" width="200" height="155" as="geometry"/>
                </mxCell>
                <mxCell id="20" style="edgeStyle=none;html=1;fontColor=#000000;" edge="1" parent="1" source="19" target="17">
                    <mxGeometry relative="1" as="geometry">
                        <Array as="points">
                            <mxPoint x="700" y="145"/>
                        </Array>
                    </mxGeometry>
                </mxCell>
                <mxCell id="21" style="edgeStyle=none;html=1;entryX=0.5;entryY=0;entryDx=0;entryDy=0;fontColor=#000000;" edge="1" parent="1" source="19" target="4">
                    <mxGeometry relative="1" as="geometry">
                        <Array as="points">
                            <mxPoint x="940" y="60"/>
                            <mxPoint x="525" y="60"/>
                        </Array>
                    </mxGeometry>
                </mxCell>
                <mxCell id="19" value="Surtur - Process Charges Queues" style="shape=cylinder3;whiteSpace=wrap;html=1;boundedLbl=1;backgroundOutline=1;size=15;fontColor=#000000;fillColor=#FFFFFF;align=center;verticalAlign=top;" vertex="1" parent="1">
                    <mxGeometry x="900" y="90" width="80" height="110" as="geometry"/>
                </mxCell>
                <mxCell id="25" style="edgeStyle=none;html=1;fontColor=#000000;entryX=0.5;entryY=0;entryDx=0;entryDy=0;" edge="1" parent="1" source="22" target="36">
                    <mxGeometry relative="1" as="geometry">
                        <mxPoint x="1115" y="370" as="targetPoint"/>
                        <Array as="points">
                            <mxPoint x="1140" y="280"/>
                        </Array>
                    </mxGeometry>
                </mxCell>
                <mxCell id="22" value="Send Charges with Determinate date" style="rounded=1;whiteSpace=wrap;html=1;fontColor=#000000;fillColor=#FFFFFF;align=center;verticalAlign=middle;" vertex="1" parent="1">
                    <mxGeometry x="790" y="244" width="180" height="75" as="geometry"/>
                </mxCell>
                <mxCell id="26" style="edgeStyle=none;html=1;fontColor=#000000;" edge="1" parent="1" source="24" target="27">
                    <mxGeometry relative="1" as="geometry">
                        <mxPoint x="930" y="470" as="targetPoint"/>
                        <Array as="points">
                            <mxPoint x="960" y="600"/>
                        </Array>
                    </mxGeometry>
                </mxCell>
                <mxCell id="28" style="edgeStyle=none;html=1;fontColor=#000000;" edge="1" parent="1" source="24" target="29">
                    <mxGeometry relative="1" as="geometry">
                        <mxPoint x="1300" y="510" as="targetPoint"/>
                        <Array as="points">
                            <mxPoint x="1270" y="605"/>
                            <mxPoint x="1350" y="605"/>
                        </Array>
                    </mxGeometry>
                </mxCell>
                <mxCell id="24" value="process status" style="rhombus;whiteSpace=wrap;html=1;fontColor=#000000;fillColor=#FFFFFF;align=center;verticalAlign=middle;" vertex="1" parent="1">
                    <mxGeometry x="1040" y="540" width="130" height="130" as="geometry"/>
                </mxCell>
                <mxCell id="39" style="edgeStyle=none;html=1;entryX=0.5;entryY=1;entryDx=0;entryDy=0;fontColor=#000000;" edge="1" parent="1" source="27" target="38">
                    <mxGeometry relative="1" as="geometry">
                        <Array as="points">
                            <mxPoint x="960" y="790"/>
                            <mxPoint x="535" y="790"/>
                        </Array>
                    </mxGeometry>
                </mxCell>
                <mxCell id="27" value="Sent" style="rounded=1;whiteSpace=wrap;html=1;fontColor=#000000;fillColor=#FFFFFF;align=center;verticalAlign=middle;" vertex="1" parent="1">
                    <mxGeometry x="900" y="700" width="120" height="60" as="geometry"/>
                </mxCell>
                <mxCell id="42" style="edgeStyle=none;html=1;entryX=1;entryY=0.5;entryDx=0;entryDy=0;fontColor=#000000;" edge="1" parent="1" source="29" target="41">
                    <mxGeometry relative="1" as="geometry">
                        <Array as="points">
                            <mxPoint x="1350" y="860"/>
                        </Array>
                    </mxGeometry>
                </mxCell>
                <mxCell id="29" value="Not Sent&amp;nbsp;&amp;nbsp;" style="rounded=1;whiteSpace=wrap;html=1;fontColor=#000000;fillColor=#FFFFFF;align=center;verticalAlign=middle;" vertex="1" parent="1">
                    <mxGeometry x="1290" y="630" width="120" height="60" as="geometry"/>
                </mxCell>
                <mxCell id="31" style="edgeStyle=none;html=1;fontColor=#000000;" edge="1" parent="1" source="30" target="19">
                    <mxGeometry relative="1" as="geometry"/>
                </mxCell>
                <mxCell id="30" value="Queues" style="swimlane;fontColor=#000000;fillColor=#FFFFFF;align=center;verticalAlign=middle;" vertex="1" parent="1">
                    <mxGeometry x="1140" y="44" width="200" height="200" as="geometry"/>
                </mxCell>
                <mxCell id="34" value="automatic daily process, charges, notices, sending emails" style="whiteSpace=wrap;html=1;fontColor=#000000;fillColor=#FFFFFF;align=center;verticalAlign=middle;" vertex="1" parent="30">
                    <mxGeometry x="15" y="31" width="170" height="140" as="geometry"/>
                </mxCell>
                <mxCell id="37" style="edgeStyle=none;html=1;entryX=0.704;entryY=0.191;entryDx=0;entryDy=0;fontColor=#000000;entryPerimeter=0;" edge="1" parent="1" target="24">
                    <mxGeometry relative="1" as="geometry">
                        <mxPoint x="1170" y="473" as="sourcePoint"/>
                        <Array as="points">
                            <mxPoint x="1170" y="540"/>
                        </Array>
                    </mxGeometry>
                </mxCell>
                <mxCell id="47" style="edgeStyle=none;html=1;fontColor=#000000;" edge="1" parent="1" source="36" target="46">
                    <mxGeometry relative="1" as="geometry">
                        <Array as="points">
                            <mxPoint x="1170" y="330"/>
                        </Array>
                    </mxGeometry>
                </mxCell>
                <mxCell id="36" value="Process queues - send charges in email and whatsapp" style="rounded=1;whiteSpace=wrap;html=1;fontColor=#000000;fillColor=#FFFFFF;align=center;verticalAlign=middle;" vertex="1" parent="1">
                    <mxGeometry x="1050" y="380" width="180" height="90" as="geometry"/>
                </mxCell>
                <mxCell id="40" style="edgeStyle=none;html=1;fontColor=#000000;" edge="1" parent="1" source="38">
                    <mxGeometry relative="1" as="geometry">
                        <mxPoint x="710" y="520" as="targetPoint"/>
                        <Array as="points">
                            <mxPoint x="535" y="560"/>
                            <mxPoint x="710" y="560"/>
                        </Array>
                    </mxGeometry>
                </mxCell>
                <mxCell id="38" value="Actualize charge status" style="rounded=1;whiteSpace=wrap;html=1;fontColor=#000000;fillColor=#FFFFFF;align=center;verticalAlign=middle;" vertex="1" parent="1">
                    <mxGeometry x="450" y="670" width="170" height="80" as="geometry"/>
                </mxCell>
                <mxCell id="43" style="edgeStyle=none;html=1;entryX=0.5;entryY=1;entryDx=0;entryDy=0;fontColor=#000000;" edge="1" parent="1" source="41" target="22">
                    <mxGeometry relative="1" as="geometry">
                        <Array as="points">
                            <mxPoint x="880" y="860"/>
                        </Array>
                    </mxGeometry>
                </mxCell>
                <mxCell id="41" value="adding data in Reprocess queue&amp;nbsp;" style="rounded=1;whiteSpace=wrap;html=1;fontColor=#000000;fillColor=#FFFFFF;align=center;verticalAlign=middle;" vertex="1" parent="1">
                    <mxGeometry x="1080" y="830" width="120" height="60" as="geometry"/>
                </mxCell>
                <mxCell id="49" style="edgeStyle=none;html=1;entryX=0.5;entryY=0;entryDx=0;entryDy=0;fontColor=#000000;" edge="1" parent="1" source="46" target="48">
                    <mxGeometry relative="1" as="geometry">
                        <Array as="points">
                            <mxPoint x="1760" y="334"/>
                        </Array>
                    </mxGeometry>
                </mxCell>
                <mxCell id="46" value="Juno API" style="ellipse;whiteSpace=wrap;html=1;aspect=fixed;fontColor=#000000;fillColor=#FFFFFF;align=center;verticalAlign=middle;" vertex="1" parent="1">
                    <mxGeometry x="1490" y="250" width="160" height="160" as="geometry"/>
                </mxCell>
                <mxCell id="50" style="edgeStyle=none;html=1;fontColor=#000000;exitX=0;exitY=0.75;exitDx=0;exitDy=0;" edge="1" parent="1" source="48">
                    <mxGeometry relative="1" as="geometry">
                        <mxPoint x="1170" y="470" as="targetPoint"/>
                        <Array as="points">
                            <mxPoint x="1170" y="490"/>
                        </Array>
                    </mxGeometry>
                </mxCell>
                <mxCell id="48" value="Generate Charge" style="rounded=1;whiteSpace=wrap;html=1;fontColor=#000000;fillColor=#FFFFFF;align=center;verticalAlign=middle;" vertex="1" parent="1">
                    <mxGeometry x="1700" y="450" width="120" height="60" as="geometry"/>
                </mxCell>
            </root>
        </mxGraphModel>
    </diagram>
</mxfile>